<svg width="20" height="18" viewBox="0 0 20 18" fill="none" xmlns="http://www.w3.org/2000/svg">
<path d="M13.7404 14.7827C13.4357 14.916 13.2357 15.2207 13.2357 15.5492C13.2357 15.8349 13.3786 16.0967 13.6166 16.2491C13.7547 16.3395 13.9118 16.3872 14.0737 16.3872C14.188 16.3872 14.3022 16.3634 14.4117 16.3157C17.3398 15.0207 19.2347 12.1212 19.2347 8.92657C19.2347 5.7319 17.3398 2.83241 14.4117 1.5374C14.1546 1.42314 13.8547 1.44694 13.6214 1.5993C13.3833 1.75641 13.2405 2.01827 13.2405 2.30393C13.2405 2.63245 13.4357 2.9324 13.7452 3.07047C16.0638 4.09886 17.5636 6.39845 17.5636 8.92657C17.5636 11.4547 16.0638 13.7543 13.7452 14.7827H13.7404Z" fill="black"/>
<path d="M15.8449 8.9361C15.8449 10.6406 14.7594 12.0879 13.2406 12.6259V5.24628C14.7594 5.78428 15.8449 7.23641 15.8449 8.94087V8.9361Z" fill="black"/>
<path d="M10.3267 0.109131L4.11356 4.86543H1.19027C0.533239 4.86543 0 5.39867 0 6.05569V11.9356C0 12.5926 0.533239 13.1259 1.19027 13.1259H4.11356L10.3267 17.8822C10.6981 18.1678 11.2361 17.9012 11.2361 17.4346V0.566193C11.2361 0.0948476 10.6981 -0.167012 10.3267 0.118652V0.109131Z" fill="black"/>
</svg>
